<svg width="54" height="54" viewBox="0 0 54 54" fill="none" xmlns="http://www.w3.org/2000/svg">
<path d="M49.32 26.1C44.775 15.5475 36.225 9 27 9C17.775 9 9.22503 15.5475 4.68003 26.1C4.55614 26.3839 4.49219 26.6903 4.49219 27C4.49219 27.3097 4.55614 27.6161 4.68003 27.9C9.22503 38.4525 17.775 45 27 45C36.225 45 44.775 38.4525 49.32 27.9C49.4439 27.6161 49.5079 27.3097 49.5079 27C49.5079 26.6903 49.4439 26.3839 49.32 26.1ZM27 40.5C19.845 40.5 13.1175 35.3475 9.22503 27C13.1175 18.6525 19.845 13.5 27 13.5C34.155 13.5 40.8825 18.6525 44.775 27C40.8825 35.3475 34.155 40.5 27 40.5ZM27 18C25.22 18 23.4799 18.5278 21.9999 19.5168C20.5199 20.5057 19.3663 21.9113 18.6851 23.5558C18.0039 25.2004 17.8257 27.01 18.173 28.7558C18.5202 30.5016 19.3774 32.1053 20.6361 33.364C21.8947 34.6226 23.4984 35.4798 25.2442 35.8271C26.99 36.1743 28.7996 35.9961 30.4442 35.3149C32.0887 34.6337 33.4943 33.4802 34.4833 32.0001C35.4722 30.5201 36 28.78 36 27C36 24.6131 35.0518 22.3239 33.364 20.636C31.6762 18.9482 29.387 18 27 18ZM27 31.5C26.11 31.5 25.24 31.2361 24.5 30.7416C23.7599 30.2471 23.1832 29.5443 22.8426 28.7221C22.502 27.8998 22.4129 26.995 22.5865 26.1221C22.7601 25.2492 23.1887 24.4474 23.818 23.818C24.4474 23.1887 25.2492 22.7601 26.1221 22.5865C26.995 22.4128 27.8998 22.5019 28.7221 22.8425C29.5444 23.1831 30.2472 23.7599 30.7416 24.4999C31.2361 25.24 31.5 26.11 31.5 27C31.5 28.1935 31.0259 29.3381 30.182 30.182C29.3381 31.0259 28.1935 31.5 27 31.5Z" fill="black"/>
</svg>
